<svg version="1.1" xmlns="http://www.w3.org/2000/svg" xmlns:xlink="http://www.w3.org/1999/xlink" width="541" height="38"><defs><clipPath id="dKFkxIqyxiIg"><path fill="none" stroke="none" d=" M 0 0 L 541 0 L 541 38 L 0 38 L 0 0 Z"/></clipPath></defs><g transform="scale(1,1)" clip-path="url(#dKFkxIqyxiIg)"><g transform="translate(-59,-239)"><g transform="scale(21,21)"><g transform="translate(3.142857142857143,12.464285714285714)"><path fill="rgb(0,0,0)" stroke="none" paint-order="stroke fill markers" d=" M 0.391 -0.374 L 0.391 -0.374 Q 0.37 -0.418 0.301 -0.42 Q 0.22 -0.42 0.195 -0.359 Q 0.189 -0.34400000000000003 0.189 -0.33 Q 0.189 -0.291 0.23700000000000002 -0.277 L 0.23700000000000002 -0.277 L 0.23800000000000002 -0.276 Q 0.245 -0.274 0.265 -0.27 Q 0.327 -0.257 0.34800000000000003 -0.242 Q 0.357 -0.23600000000000002 0.365 -0.228 Q 0.396 -0.197 0.396 -0.155 Q 0.396 -0.10300000000000001 0.357 -0.056 Q 0.301 0.011 0.195 0.011 Q 0.10200000000000001 0.011 0.066 -0.041 Q 0.052000000000000005 -0.061 0.052000000000000005 -0.08600000000000001 Q 0.052000000000000005 -0.135 0.09 -0.149 Q 0.099 -0.152 0.108 -0.152 Q 0.14100000000000001 -0.147 0.145 -0.117 Q 0.145 -0.08600000000000001 0.11800000000000001 -0.07100000000000001 Q 0.10200000000000001 -0.061 0.082 -0.064 Q 0.105 -0.011 0.196 -0.011 Q 0.299 -0.011 0.331 -0.08600000000000001 Q 0.339 -0.105 0.339 -0.121 Q 0.339 -0.169 0.28 -0.187 L 0.28 -0.187 L 0.279 -0.187 Q 0.264 -0.191 0.23500000000000001 -0.197 Q 0.145 -0.216 0.134 -0.277 Q 0.132 -0.28600000000000003 0.132 -0.296 Q 0.132 -0.34600000000000003 0.17 -0.389 Q 0.217 -0.442 0.301 -0.442 Q 0.38 -0.442 0.41000000000000003 -0.393 Q 0.42 -0.376 0.42 -0.356 Q 0.42 -0.311 0.386 -0.302 Q 0.38 -0.3 0.374 -0.3 Q 0.34600000000000003 -0.304 0.343 -0.329 Q 0.343 -0.356 0.37 -0.369 Q 0.38 -0.374 0.391 -0.374 Z"/></g><g transform="translate(3.6118571428571427,12.464285714285714)"><path fill="rgb(0,0,0)" stroke="none" paint-order="stroke fill markers" d=" M 0.187 -0.231 L 0.134 -0.231 Q 0.11800000000000001 -0.166 0.11800000000000001 -0.127 Q 0.11800000000000001 -0.048 0.164 -0.021 Q 0.181 -0.011 0.20500000000000002 -0.011 Q 0.295 -0.011 0.367 -0.07100000000000001 Q 0.388 -0.088 0.405 -0.11 Q 0.41200000000000003 -0.12 0.418 -0.12 Q 0.427 -0.12 0.43 -0.107 Q 0.43 -0.096 0.396 -0.064 Q 0.313 0.011 0.203 0.011 Q 0.113 0.011 0.07100000000000001 -0.066 Q 0.046 -0.111 0.046 -0.17 Q 0.046 -0.301 0.148 -0.382 Q 0.223 -0.442 0.308 -0.442 Q 0.38 -0.442 0.406 -0.392 Q 0.41500000000000004 -0.376 0.41500000000000004 -0.357 Q 0.41500000000000004 -0.305 0.37 -0.271 L 0.369 -0.27 Q 0.356 -0.261 0.34 -0.254 Q 0.28500000000000003 -0.231 0.187 -0.231 M 0.14 -0.253 L 0.181 -0.253 Q 0.382 -0.253 0.382 -0.357 Q 0.382 -0.397 0.343 -0.41400000000000003 L 0.343 -0.41400000000000003 Q 0.329 -0.419 0.308 -0.42 Q 0.252 -0.42 0.20500000000000002 -0.374 Q 0.16 -0.33 0.14 -0.253 Z"/></g><g transform="translate(4.077857142857143,12.464285714285714)"><path fill="rgb(0,0,0)" stroke="none" paint-order="stroke fill markers" d=" M 0.088 -0.059000000000000004 L 0.088 -0.059000000000000004 L 0.146 -0.29 Q 0.162 -0.354 0.162 -0.374 Q 0.162 -0.42 0.131 -0.42 Q 0.09 -0.42 0.064 -0.325 Q 0.061 -0.314 0.058 -0.301 Q 0.047 -0.279 0.041 -0.278 Q 0.029 -0.278 0.029 -0.28800000000000003 Q 0.029 -0.304 0.047 -0.355 Q 0.054 -0.373 0.06 -0.385 Q 0.084 -0.434 0.12 -0.441 Q 0.127 -0.442 0.134 -0.442 Q 0.19 -0.442 0.215 -0.394 Q 0.221 -0.383 0.224 -0.37 Q 0.225 -0.368 0.225 -0.365 Q 0.28300000000000003 -0.437 0.353 -0.442 Q 0.40900000000000003 -0.442 0.429 -0.403 Q 0.436 -0.391 0.436 -0.377 Q 0.436 -0.338 0.403 -0.323 Q 0.392 -0.318 0.381 -0.318 Q 0.35000000000000003 -0.318 0.34400000000000003 -0.34500000000000003 Q 0.343 -0.34900000000000003 0.343 -0.353 Q 0.343 -0.386 0.377 -0.402 L 0.378 -0.403 Q 0.386 -0.406 0.395 -0.40800000000000003 L 0.375 -0.417 Q 0.362 -0.419 0.353 -0.42 Q 0.311 -0.42 0.273 -0.387 Q 0.242 -0.359 0.22 -0.313 Q 0.218 -0.308 0.217 -0.305 L 0.185 -0.17500000000000002 L 0.145 -0.017 Q 0.136 0.009000000000000001 0.108 0.011 Q 0.083 0.006 0.079 -0.016 Q 0.079 -0.014 0.088 -0.059000000000000004 Z"/></g><g transform="translate(4.556857142857143,12.464285714285714)"><path fill="rgb(0,0,0)" stroke="none" paint-order="stroke fill markers" d=" M 0.28400000000000003 -0.625 Q 0.28400000000000003 -0.594 0.253 -0.578 Q 0.242 -0.5720000000000001 0.231 -0.5720000000000001 Q 0.201 -0.5720000000000001 0.194 -0.599 Q 0.193 -0.604 0.193 -0.608 Q 0.193 -0.636 0.221 -0.653 Q 0.234 -0.661 0.247 -0.661 Q 0.277 -0.661 0.28300000000000003 -0.634 L 0.28300000000000003 -0.633 Q 0.28400000000000003 -0.629 0.28400000000000003 -0.625 M 0.20800000000000002 -0.249 L 0.169 -0.14400000000000002 Q 0.14100000000000001 -0.063 0.14 -0.044 Q 0.14 -0.011 0.164 -0.011 Q 0.227 -0.011 0.262 -0.123 L 0.266 -0.135 Q 0.271 -0.151 0.276 -0.152 L 0.276 -0.153 L 0.281 -0.153 Q 0.293 -0.153 0.293 -0.14300000000000002 Q 0.293 -0.125 0.271 -0.079 Q 0.228 0.011 0.162 0.011 Q 0.109 0.011 0.088 -0.033 Q 0.08 -0.051000000000000004 0.08 -0.07100000000000001 Q 0.08 -0.091 0.10300000000000001 -0.151 Q 0.17300000000000001 -0.339 0.17200000000000001 -0.336 Q 0.183 -0.364 0.183 -0.388 Q 0.183 -0.42 0.158 -0.42 Q 0.10300000000000001 -0.42 0.068 -0.329 L 0.068 -0.328 Q 0.062 -0.313 0.057 -0.296 Q 0.046 -0.279 0.041 -0.278 Q 0.029 -0.278 0.029 -0.28800000000000003 Q 0.029 -0.306 0.051000000000000004 -0.35100000000000003 Q 0.094 -0.442 0.161 -0.442 Q 0.214 -0.442 0.23500000000000001 -0.397 Q 0.243 -0.38 0.243 -0.36 Q 0.243 -0.34 0.23 -0.307 Q 0.213 -0.261 0.20800000000000002 -0.249 Z"/></g><g transform="translate(4.901857142857143,12.464285714285714)"><path fill="rgb(0,0,0)" stroke="none" paint-order="stroke fill markers" d=" M 0.187 -0.231 L 0.134 -0.231 Q 0.11800000000000001 -0.166 0.11800000000000001 -0.127 Q 0.11800000000000001 -0.048 0.164 -0.021 Q 0.181 -0.011 0.20500000000000002 -0.011 Q 0.295 -0.011 0.367 -0.07100000000000001 Q 0.388 -0.088 0.405 -0.11 Q 0.41200000000000003 -0.12 0.418 -0.12 Q 0.427 -0.12 0.43 -0.107 Q 0.43 -0.096 0.396 -0.064 Q 0.313 0.011 0.203 0.011 Q 0.113 0.011 0.07100000000000001 -0.066 Q 0.046 -0.111 0.046 -0.17 Q 0.046 -0.301 0.148 -0.382 Q 0.223 -0.442 0.308 -0.442 Q 0.38 -0.442 0.406 -0.392 Q 0.41500000000000004 -0.376 0.41500000000000004 -0.357 Q 0.41500000000000004 -0.305 0.37 -0.271 L 0.369 -0.27 Q 0.356 -0.261 0.34 -0.254 Q 0.28500000000000003 -0.231 0.187 -0.231 M 0.14 -0.253 L 0.181 -0.253 Q 0.382 -0.253 0.382 -0.357 Q 0.382 -0.397 0.343 -0.41400000000000003 L 0.343 -0.41400000000000003 Q 0.329 -0.419 0.308 -0.42 Q 0.252 -0.42 0.20500000000000002 -0.374 Q 0.16 -0.33 0.14 -0.253 Z"/></g><g transform="translate(5.367857142857143,12.464285714285714)"><path fill="rgb(0,0,0)" stroke="none" paint-order="stroke fill markers" d=" M 0.391 -0.374 L 0.391 -0.374 Q 0.37 -0.418 0.301 -0.42 Q 0.22 -0.42 0.195 -0.359 Q 0.189 -0.34400000000000003 0.189 -0.33 Q 0.189 -0.291 0.23700000000000002 -0.277 L 0.23700000000000002 -0.277 L 0.23800000000000002 -0.276 Q 0.245 -0.274 0.265 -0.27 Q 0.327 -0.257 0.34800000000000003 -0.242 Q 0.357 -0.23600000000000002 0.365 -0.228 Q 0.396 -0.197 0.396 -0.155 Q 0.396 -0.10300000000000001 0.357 -0.056 Q 0.301 0.011 0.195 0.011 Q 0.10200000000000001 0.011 0.066 -0.041 Q 0.052000000000000005 -0.061 0.052000000000000005 -0.08600000000000001 Q 0.052000000000000005 -0.135 0.09 -0.149 Q 0.099 -0.152 0.108 -0.152 Q 0.14100000000000001 -0.147 0.145 -0.117 Q 0.145 -0.08600000000000001 0.11800000000000001 -0.07100000000000001 Q 0.10200000000000001 -0.061 0.082 -0.064 Q 0.105 -0.011 0.196 -0.011 Q 0.299 -0.011 0.331 -0.08600000000000001 Q 0.339 -0.105 0.339 -0.121 Q 0.339 -0.169 0.28 -0.187 L 0.28 -0.187 L 0.279 -0.187 Q 0.264 -0.191 0.23500000000000001 -0.197 Q 0.145 -0.216 0.134 -0.277 Q 0.132 -0.28600000000000003 0.132 -0.296 Q 0.132 -0.34600000000000003 0.17 -0.389 Q 0.217 -0.442 0.301 -0.442 Q 0.38 -0.442 0.41000000000000003 -0.393 Q 0.42 -0.376 0.42 -0.356 Q 0.42 -0.311 0.386 -0.302 Q 0.38 -0.3 0.374 -0.3 Q 0.34600000000000003 -0.304 0.343 -0.329 Q 0.343 -0.356 0.37 -0.369 Q 0.38 -0.374 0.391 -0.374 Z"/></g><g transform="translate(5.836857142857143,12.464285714285714)"><path fill="rgb(0,0,0)" stroke="none" paint-order="stroke fill markers" d=" M 0.331 0.24 L 0.331 0.24 Q 0.331 0.25 0.321 0.25 Q 0.309 0.25 0.268 0.209 Q 0.20600000000000002 0.147 0.165 0.062 Q 0.099 -0.074 0.099 -0.25 Q 0.099 -0.419 0.162 -0.555 Q 0.214 -0.666 0.294 -0.733 Q 0.315 -0.75 0.321 -0.75 Q 0.331 -0.75 0.331 -0.74 Q 0.331 -0.735 0.318 -0.723 Q 0.157 -0.559 0.157 -0.25 Q 0.157 0.058 0.314 0.218 Q 0.331 0.23500000000000001 0.331 0.24 Z"/></g><g transform="translate(6.225857142857143,12.464285714285714)"><path fill="rgb(0,0,0)" stroke="none" paint-order="stroke fill markers" d=" M 0.088 -0.059000000000000004 L 0.088 -0.059000000000000004 L 0.146 -0.29 Q 0.162 -0.354 0.162 -0.374 Q 0.162 -0.42 0.131 -0.42 Q 0.09 -0.42 0.064 -0.325 Q 0.061 -0.314 0.058 -0.301 Q 0.047 -0.279 0.041 -0.278 Q 0.029 -0.278 0.029 -0.28800000000000003 Q 0.029 -0.304 0.049 -0.36 L 0.049 -0.361 Q 0.049 -0.362 0.05 -0.362 L 0.05 -0.363 L 0.05 -0.364 L 0.059000000000000004 -0.385 Q 0.081 -0.425 0.10400000000000001 -0.435 Q 0.11800000000000001 -0.442 0.134 -0.442 Q 0.19 -0.442 0.215 -0.395 Q 0.224 -0.377 0.226 -0.355 Q 0.29 -0.442 0.382 -0.442 Q 0.468 -0.442 0.491 -0.376 Q 0.497 -0.358 0.497 -0.335 Q 0.497 -0.28400000000000003 0.436 -0.115 Q 0.418 -0.07100000000000001 0.418 -0.044 Q 0.418 -0.011 0.442 -0.011 Q 0.508 -0.011 0.544 -0.135 Q 0.549 -0.151 0.554 -0.152 L 0.554 -0.153 L 0.559 -0.153 Q 0.5710000000000001 -0.153 0.5710000000000001 -0.14300000000000002 Q 0.5710000000000001 -0.126 0.55 -0.08 Q 0.507 0.011 0.44 0.011 Q 0.389 0.011 0.367 -0.032 Q 0.358 -0.05 0.358 -0.07100000000000001 Q 0.358 -0.091 0.368 -0.117 Q 0.433 -0.292 0.433 -0.35000000000000003 Q 0.433 -0.42 0.379 -0.42 Q 0.289 -0.42 0.228 -0.32 Q 0.221 -0.309 0.216 -0.298 L 0.203 -0.248 Q 0.198 -0.225 0.186 -0.181 L 0.164 -0.091 Q 0.147 -0.022 0.145 -0.017 Q 0.136 0.009000000000000001 0.108 0.011 Q 0.083 0.006 0.079 -0.016 Q 0.079 -0.014 0.088 -0.059000000000000004 Z"/></g><g transform="translate(6.825857142857143,12.464285714285714)"><path fill="rgb(0,0,0)" stroke="none" paint-order="stroke fill markers" d=" M 0.289 -0.25 L 0.289 -0.25 Q 0.289 -0.081 0.226 0.055 Q 0.17400000000000002 0.166 0.094 0.233 Q 0.073 0.25 0.067 0.25 Q 0.057 0.25 0.057 0.24 Q 0.057 0.23500000000000001 0.07 0.223 Q 0.231 0.059000000000000004 0.231 -0.25 Q 0.231 -0.555 0.081 -0.712 L 0.076 -0.717 Q 0.057 -0.735 0.057 -0.74 Q 0.057 -0.75 0.067 -0.75 Q 0.079 -0.75 0.12 -0.709 Q 0.182 -0.647 0.223 -0.562 Q 0.289 -0.426 0.289 -0.25 Z"/></g><g transform="translate(7.492634920634921,12.464285714285714)"><path fill="rgb(0,0,0)" stroke="none" paint-order="stroke fill markers" d=" M 0.687 -0.327 L 0.09 -0.327 Q 0.058 -0.327 0.056 -0.34700000000000003 Q 0.056 -0.367 0.089 -0.367 L 0.6880000000000001 -0.367 Q 0.72 -0.367 0.721 -0.34700000000000003 Q 0.721 -0.327 0.687 -0.327 M 0.6880000000000001 -0.133 L 0.089 -0.133 Q 0.057 -0.133 0.056 -0.153 Q 0.056 -0.17300000000000001 0.09 -0.17300000000000001 L 0.687 -0.17300000000000001 Q 0.719 -0.17300000000000001 0.721 -0.153 Q 0.721 -0.133 0.6880000000000001 -0.133 Z"/></g><g transform="translate(8.5484126984127,12.464285714285714)"><path fill="rgb(0,0,0)" stroke="none" paint-order="stroke fill markers" d=" M 0.449 -0.17400000000000002 L 0.449 -0.17400000000000002 L 0.421 0 L 0.05 0 Q 0.05 -0.025 0.056 -0.032 L 0.061 -0.037 L 0.253 -0.251 Q 0.358 -0.369 0.358 -0.47200000000000003 Q 0.358 -0.561 0.304 -0.607 L 0.303 -0.608 L 0.302 -0.608 Q 0.27 -0.635 0.224 -0.635 Q 0.152 -0.635 0.109 -0.5730000000000001 Q 0.097 -0.555 0.089 -0.533 Q 0.092 -0.534 0.10200000000000001 -0.534 Q 0.14200000000000002 -0.534 0.153 -0.498 L 0.153 -0.497 Q 0.155 -0.49 0.155 -0.482 Q 0.155 -0.442 0.117 -0.431 Q 0.109 -0.429 0.10300000000000001 -0.429 Q 0.066 -0.429 0.054 -0.46 Q 0.05 -0.47100000000000003 0.05 -0.485 Q 0.05 -0.562 0.109 -0.617 Q 0.162 -0.666 0.23700000000000002 -0.666 Q 0.34700000000000003 -0.666 0.40800000000000003 -0.592 Q 0.443 -0.549 0.448 -0.49 Q 0.449 -0.481 0.449 -0.47200000000000003 Q 0.449 -0.399 0.394 -0.333 Q 0.365 -0.299 0.304 -0.243 L 0.243 -0.189 L 0.233 -0.18 L 0.127 -0.077 L 0.307 -0.077 Q 0.395 -0.077 0.402 -0.085 Q 0.41200000000000003 -0.099 0.424 -0.17400000000000002 L 0.449 -0.17400000000000002 Z"/></g><g transform="translate(9.0484126984127,12.464285714285714)"><path fill="rgb(0,0,0)" stroke="none" paint-order="stroke fill markers" d=" M 0.367 -0.4 L 0.367 -0.4 L 0.307 -0.083 Q 0.298 -0.021 0.271 0.059000000000000004 Q 0.261 0.088 0.251 0.108 Q 0.216 0.182 0.164 0.2 Q 0.151 0.20500000000000002 0.138 0.20500000000000002 Q 0.088 0.20500000000000002 0.064 0.171 Q 0.053 0.156 0.053 0.136 Q 0.053 0.096 0.08700000000000001 0.081 Q 0.097 0.076 0.108 0.076 Q 0.137 0.076 0.14400000000000002 0.101 Q 0.145 0.106 0.145 0.111 Q 0.145 0.145 0.115 0.159 Q 0.10400000000000001 0.164 0.09 0.165 Q 0.109 0.183 0.138 0.183 Q 0.182 0.183 0.20700000000000002 0.085 Q 0.212 0.062 0.219 0.025 L 0.225 -0.005 L 0.3 -0.4 L 0.234 -0.4 Q 0.209 -0.4 0.20700000000000002 -0.40800000000000003 L 0.20600000000000002 -0.40800000000000003 L 0.20600000000000002 -0.41200000000000003 Q 0.20600000000000002 -0.429 0.223 -0.431 L 0.223 -0.431 L 0.23600000000000002 -0.431 L 0.305 -0.431 Q 0.329 -0.556 0.338 -0.588 Q 0.368 -0.6880000000000001 0.444 -0.7030000000000001 Q 0.455 -0.705 0.465 -0.705 Q 0.517 -0.705 0.541 -0.671 L 0.541 -0.671 Q 0.552 -0.656 0.552 -0.636 Q 0.552 -0.596 0.518 -0.581 Q 0.508 -0.5760000000000001 0.497 -0.5760000000000001 Q 0.468 -0.5760000000000001 0.461 -0.601 Q 0.46 -0.606 0.46 -0.611 Q 0.46 -0.642 0.488 -0.657 Q 0.499 -0.664 0.514 -0.665 Q 0.495 -0.683 0.465 -0.683 Q 0.434 -0.683 0.418 -0.649 Q 0.41100000000000003 -0.635 0.394 -0.545 L 0.373 -0.431 L 0.456 -0.431 Q 0.481 -0.431 0.483 -0.42 Q 0.483 -0.402 0.467 -0.4 L 0.466 -0.4 L 0.453 -0.4 L 0.367 -0.4 Z"/></g><g transform="translate(9.6464126984127,12.464285714285714)"><path fill="rgb(0,0,0)" stroke="none" paint-order="stroke fill markers" d=" M 0.28400000000000003 -0.625 Q 0.28400000000000003 -0.594 0.253 -0.578 Q 0.242 -0.5720000000000001 0.231 -0.5720000000000001 Q 0.201 -0.5720000000000001 0.194 -0.599 Q 0.193 -0.604 0.193 -0.608 Q 0.193 -0.636 0.221 -0.653 Q 0.234 -0.661 0.247 -0.661 Q 0.277 -0.661 0.28300000000000003 -0.634 L 0.28300000000000003 -0.633 Q 0.28400000000000003 -0.629 0.28400000000000003 -0.625 M 0.20800000000000002 -0.249 L 0.169 -0.14400000000000002 Q 0.14100000000000001 -0.063 0.14 -0.044 Q 0.14 -0.011 0.164 -0.011 Q 0.227 -0.011 0.262 -0.123 L 0.266 -0.135 Q 0.271 -0.151 0.276 -0.152 L 0.276 -0.153 L 0.281 -0.153 Q 0.293 -0.153 0.293 -0.14300000000000002 Q 0.293 -0.125 0.271 -0.079 Q 0.228 0.011 0.162 0.011 Q 0.109 0.011 0.088 -0.033 Q 0.08 -0.051000000000000004 0.08 -0.07100000000000001 Q 0.08 -0.091 0.10300000000000001 -0.151 Q 0.17300000000000001 -0.339 0.17200000000000001 -0.336 Q 0.183 -0.364 0.183 -0.388 Q 0.183 -0.42 0.158 -0.42 Q 0.10300000000000001 -0.42 0.068 -0.329 L 0.068 -0.328 Q 0.062 -0.313 0.057 -0.296 Q 0.046 -0.279 0.041 -0.278 Q 0.029 -0.278 0.029 -0.28800000000000003 Q 0.029 -0.306 0.051000000000000004 -0.35100000000000003 Q 0.094 -0.442 0.161 -0.442 Q 0.214 -0.442 0.23500000000000001 -0.397 Q 0.243 -0.38 0.243 -0.36 Q 0.243 -0.34 0.23 -0.307 Q 0.213 -0.261 0.20800000000000002 -0.249 Z"/></g><g transform="translate(9.9914126984127,12.464285714285714)"><path fill="rgb(0,0,0)" stroke="none" paint-order="stroke fill markers" d=" M 0.23900000000000002 -0.683 L 0.165 -0.382 Q 0.223 -0.442 0.28200000000000003 -0.442 Q 0.357 -0.442 0.394 -0.373 Q 0.41500000000000004 -0.333 0.41500000000000004 -0.28200000000000003 Q 0.41500000000000004 -0.176 0.341 -0.084 Q 0.272 0.001 0.189 0.01 Q 0.181 0.011 0.17400000000000002 0.011 Q 0.10200000000000001 0.011 0.067 -0.056 Q 0.047 -0.094 0.047 -0.146 Q 0.047 -0.18 0.063 -0.247 L 0.145 -0.5730000000000001 Q 0.159 -0.632 0.159 -0.635 Q 0.159 -0.646 0.145 -0.649 L 0.145 -0.649 Q 0.133 -0.652 0.109 -0.652 Q 0.08700000000000001 -0.652 0.085 -0.664 Q 0.085 -0.681 0.10400000000000001 -0.684 L 0.226 -0.6940000000000001 Q 0.23900000000000002 -0.6940000000000001 0.23900000000000002 -0.683 M 0.145 -0.305 L 0.123 -0.213 Q 0.107 -0.15 0.107 -0.112 Q 0.107 -0.026000000000000002 0.159 -0.013000000000000001 Q 0.166 -0.011 0.17400000000000002 -0.011 Q 0.227 -0.011 0.273 -0.081 Q 0.28300000000000003 -0.096 0.292 -0.114 Q 0.319 -0.171 0.337 -0.268 Q 0.343 -0.303 0.343 -0.326 Q 0.343 -0.406 0.294 -0.418 L 0.293 -0.419 Q 0.28700000000000003 -0.42 0.28 -0.42 Q 0.22 -0.42 0.16 -0.34 Q 0.152 -0.33 0.145 -0.305 Z"/></g><g transform="translate(10.4204126984127,12.464285714285714)"><path fill="rgb(0,0,0)" stroke="none" paint-order="stroke fill markers" d=" M 0.46900000000000003 -0.273 Q 0.46900000000000003 -0.167 0.388 -0.08 Q 0.311 0.004 0.215 0.01 Q 0.20800000000000002 0.011 0.201 0.011 Q 0.114 0.011 0.069 -0.058 Q 0.041 -0.101 0.041 -0.158 Q 0.041 -0.261 0.121 -0.34900000000000003 Q 0.197 -0.433 0.293 -0.441 Q 0.301 -0.442 0.309 -0.442 Q 0.395 -0.442 0.44 -0.375 Q 0.46900000000000003 -0.332 0.46900000000000003 -0.273 M 0.202 -0.011 L 0.202 -0.011 Q 0.261 -0.011 0.313 -0.069 Q 0.327 -0.085 0.338 -0.10300000000000001 Q 0.38 -0.17500000000000002 0.394 -0.28200000000000003 Q 0.395 -0.29 0.395 -0.298 L 0.395 -0.299 L 0.396 -0.3 L 0.396 -0.312 Q 0.396 -0.386 0.34700000000000003 -0.41100000000000003 Q 0.33 -0.42 0.308 -0.42 Q 0.247 -0.42 0.193 -0.356 Q 0.186 -0.34700000000000003 0.18 -0.338 Q 0.176 -0.333 0.17300000000000001 -0.328 Q 0.137 -0.27 0.12 -0.166 Q 0.115 -0.138 0.115 -0.12 Q 0.115 -0.037 0.17300000000000001 -0.016 Q 0.187 -0.011 0.202 -0.011 Z"/></g><g transform="translate(10.9054126984127,12.464285714285714)"><path fill="rgb(0,0,0)" stroke="none" paint-order="stroke fill markers" d=" M 0.088 -0.059000000000000004 L 0.088 -0.059000000000000004 L 0.146 -0.29 Q 0.162 -0.354 0.162 -0.374 Q 0.162 -0.42 0.131 -0.42 Q 0.09 -0.42 0.064 -0.325 Q 0.061 -0.314 0.058 -0.301 Q 0.047 -0.279 0.041 -0.278 Q 0.029 -0.278 0.029 -0.28800000000000003 Q 0.029 -0.304 0.049 -0.36 L 0.049 -0.361 Q 0.049 -0.362 0.05 -0.362 L 0.05 -0.363 L 0.05 -0.364 L 0.059000000000000004 -0.385 Q 0.081 -0.425 0.10400000000000001 -0.435 Q 0.11800000000000001 -0.442 0.134 -0.442 Q 0.19 -0.442 0.215 -0.395 Q 0.224 -0.377 0.226 -0.355 Q 0.29 -0.442 0.382 -0.442 Q 0.468 -0.442 0.491 -0.376 Q 0.497 -0.358 0.497 -0.335 Q 0.497 -0.28400000000000003 0.436 -0.115 Q 0.418 -0.07100000000000001 0.418 -0.044 Q 0.418 -0.011 0.442 -0.011 Q 0.508 -0.011 0.544 -0.135 Q 0.549 -0.151 0.554 -0.152 L 0.554 -0.153 L 0.559 -0.153 Q 0.5710000000000001 -0.153 0.5710000000000001 -0.14300000000000002 Q 0.5710000000000001 -0.126 0.55 -0.08 Q 0.507 0.011 0.44 0.011 Q 0.389 0.011 0.367 -0.032 Q 0.358 -0.05 0.358 -0.07100000000000001 Q 0.358 -0.091 0.368 -0.117 Q 0.433 -0.292 0.433 -0.35000000000000003 Q 0.433 -0.42 0.379 -0.42 Q 0.289 -0.42 0.228 -0.32 Q 0.221 -0.309 0.216 -0.298 L 0.203 -0.248 Q 0.198 -0.225 0.186 -0.181 L 0.164 -0.091 Q 0.147 -0.022 0.145 -0.017 Q 0.136 0.009000000000000001 0.108 0.011 Q 0.083 0.006 0.079 -0.016 Q 0.079 -0.014 0.088 -0.059000000000000004 Z"/></g><g transform="translate(11.5054126984127,12.464285714285714)"><path fill="rgb(0,0,0)" stroke="none" paint-order="stroke fill markers" d=" M 0.373 -0.378 Q 0.378 -0.41200000000000003 0.404 -0.42 Q 0.40900000000000003 -0.422 0.41500000000000004 -0.422 Q 0.441 -0.422 0.444 -0.395 Q 0.444 -0.389 0.437 -0.361 L 0.401 -0.221 Q 0.386 -0.158 0.379 -0.131 Q 0.366 -0.079 0.366 -0.057 Q 0.366 -0.011 0.396 -0.011 Q 0.434 -0.011 0.46 -0.091 Q 0.465 -0.108 0.47200000000000003 -0.135 Q 0.48 -0.152 0.486 -0.153 Q 0.498 -0.153 0.498 -0.14300000000000002 Q 0.498 -0.128 0.48 -0.073 Q 0.47400000000000003 -0.056 0.468 -0.044 Q 0.44 0.011 0.394 0.011 Q 0.338 0.011 0.313 -0.037 Q 0.306 -0.049 0.303 -0.064 Q 0.24 0.011 0.17300000000000001 0.011 Q 0.098 0.011 0.062 -0.057 Q 0.04 -0.097 0.04 -0.149 Q 0.04 -0.257 0.115 -0.34900000000000003 Q 0.185 -0.433 0.267 -0.441 Q 0.274 -0.442 0.281 -0.442 Q 0.342 -0.442 0.373 -0.378 M 0.308 -0.11900000000000001 L 0.308 -0.11900000000000001 L 0.358 -0.315 Q 0.361 -0.33 0.361 -0.332 Q 0.361 -0.353 0.343 -0.383 Q 0.321 -0.42 0.28200000000000003 -0.42 Q 0.23 -0.42 0.183 -0.352 Q 0.17400000000000002 -0.339 0.166 -0.324 Q 0.137 -0.266 0.117 -0.159 Q 0.111 -0.125 0.111 -0.105 Q 0.111 -0.037 0.149 -0.017 Q 0.16 -0.011 0.17500000000000002 -0.011 Q 0.231 -0.011 0.28800000000000003 -0.082 Q 0.302 -0.098 0.307 -0.115 L 0.307 -0.116 Q 0.308 -0.11800000000000001 0.308 -0.11900000000000001 Z"/></g><g transform="translate(12.0344126984127,12.464285714285714)"><path fill="rgb(0,0,0)" stroke="none" paint-order="stroke fill markers" d=" M 0.396 -0.38 L 0.396 -0.38 Q 0.368 -0.41600000000000004 0.31 -0.42 Q 0.245 -0.42 0.192 -0.354 Q 0.179 -0.338 0.169 -0.32 Q 0.129 -0.247 0.117 -0.148 Q 0.115 -0.132 0.115 -0.12 Q 0.115 -0.038 0.171 -0.017 Q 0.185 -0.011 0.20500000000000002 -0.011 Q 0.295 -0.011 0.367 -0.07100000000000001 Q 0.388 -0.088 0.405 -0.11 Q 0.41200000000000003 -0.12 0.418 -0.12 Q 0.427 -0.12 0.43 -0.107 Q 0.43 -0.096 0.396 -0.064 Q 0.313 0.011 0.203 0.011 Q 0.108 0.011 0.065 -0.065 Q 0.041 -0.106 0.041 -0.158 Q 0.041 -0.26 0.11900000000000001 -0.34700000000000003 Q 0.196 -0.433 0.291 -0.441 Q 0.3 -0.442 0.309 -0.442 Q 0.386 -0.442 0.41600000000000004 -0.395 Q 0.427 -0.377 0.427 -0.356 Q 0.427 -0.312 0.392 -0.296 Q 0.382 -0.292 0.371 -0.292 Q 0.341 -0.292 0.335 -0.318 Q 0.334 -0.322 0.334 -0.327 Q 0.334 -0.34900000000000003 0.352 -0.366 Q 0.366 -0.38 0.396 -0.38 Z"/></g><g transform="translate(12.4674126984127,12.464285714285714)"><path fill="rgb(0,0,0)" stroke="none" paint-order="stroke fill markers" d=" M 0.396 -0.38 L 0.396 -0.38 Q 0.368 -0.41600000000000004 0.31 -0.42 Q 0.245 -0.42 0.192 -0.354 Q 0.179 -0.338 0.169 -0.32 Q 0.129 -0.247 0.117 -0.148 Q 0.115 -0.132 0.115 -0.12 Q 0.115 -0.038 0.171 -0.017 Q 0.185 -0.011 0.20500000000000002 -0.011 Q 0.295 -0.011 0.367 -0.07100000000000001 Q 0.388 -0.088 0.405 -0.11 Q 0.41200000000000003 -0.12 0.418 -0.12 Q 0.427 -0.12 0.43 -0.107 Q 0.43 -0.096 0.396 -0.064 Q 0.313 0.011 0.203 0.011 Q 0.108 0.011 0.065 -0.065 Q 0.041 -0.106 0.041 -0.158 Q 0.041 -0.26 0.11900000000000001 -0.34700000000000003 Q 0.196 -0.433 0.291 -0.441 Q 0.3 -0.442 0.309 -0.442 Q 0.386 -0.442 0.41600000000000004 -0.395 Q 0.427 -0.377 0.427 -0.356 Q 0.427 -0.312 0.392 -0.296 Q 0.382 -0.292 0.371 -0.292 Q 0.341 -0.292 0.335 -0.318 Q 0.334 -0.322 0.334 -0.327 Q 0.334 -0.34900000000000003 0.352 -0.366 Q 0.366 -0.38 0.396 -0.38 Z"/></g><g transform="translate(12.9004126984127,12.464285714285714)"><path fill="rgb(0,0,0)" stroke="none" paint-order="stroke fill markers" d=" M 0.28400000000000003 -0.625 Q 0.28400000000000003 -0.594 0.253 -0.578 Q 0.242 -0.5720000000000001 0.231 -0.5720000000000001 Q 0.201 -0.5720000000000001 0.194 -0.599 Q 0.193 -0.604 0.193 -0.608 Q 0.193 -0.636 0.221 -0.653 Q 0.234 -0.661 0.247 -0.661 Q 0.277 -0.661 0.28300000000000003 -0.634 L 0.28300000000000003 -0.633 Q 0.28400000000000003 -0.629 0.28400000000000003 -0.625 M 0.20800000000000002 -0.249 L 0.169 -0.14400000000000002 Q 0.14100000000000001 -0.063 0.14 -0.044 Q 0.14 -0.011 0.164 -0.011 Q 0.227 -0.011 0.262 -0.123 L 0.266 -0.135 Q 0.271 -0.151 0.276 -0.152 L 0.276 -0.153 L 0.281 -0.153 Q 0.293 -0.153 0.293 -0.14300000000000002 Q 0.293 -0.125 0.271 -0.079 Q 0.228 0.011 0.162 0.011 Q 0.109 0.011 0.088 -0.033 Q 0.08 -0.051000000000000004 0.08 -0.07100000000000001 Q 0.08 -0.091 0.10300000000000001 -0.151 Q 0.17300000000000001 -0.339 0.17200000000000001 -0.336 Q 0.183 -0.364 0.183 -0.388 Q 0.183 -0.42 0.158 -0.42 Q 0.10300000000000001 -0.42 0.068 -0.329 L 0.068 -0.328 Q 0.062 -0.313 0.057 -0.296 Q 0.046 -0.279 0.041 -0.278 Q 0.029 -0.278 0.029 -0.28800000000000003 Q 0.029 -0.306 0.051000000000000004 -0.35100000000000003 Q 0.094 -0.442 0.161 -0.442 Q 0.214 -0.442 0.23500000000000001 -0.397 Q 0.243 -0.38 0.243 -0.36 Q 0.243 -0.34 0.23 -0.307 Q 0.213 -0.261 0.20800000000000002 -0.249 Z"/></g><g transform="translate(13.2454126984127,12.464285714285714)"><path fill="rgb(0,0,0)" stroke="none" paint-order="stroke fill markers" d=" M 0.331 0.24 L 0.331 0.24 Q 0.331 0.25 0.321 0.25 Q 0.309 0.25 0.268 0.209 Q 0.20600000000000002 0.147 0.165 0.062 Q 0.099 -0.074 0.099 -0.25 Q 0.099 -0.419 0.162 -0.555 Q 0.214 -0.666 0.294 -0.733 Q 0.315 -0.75 0.321 -0.75 Q 0.331 -0.75 0.331 -0.74 Q 0.331 -0.735 0.318 -0.723 Q 0.157 -0.559 0.157 -0.25 Q 0.157 0.058 0.314 0.218 Q 0.331 0.23500000000000001 0.331 0.24 Z"/></g><g transform="translate(13.6344126984127,12.464285714285714)"><path fill="rgb(0,0,0)" stroke="none" paint-order="stroke fill markers" d=" M 0.088 -0.059000000000000004 L 0.088 -0.059000000000000004 L 0.146 -0.29 Q 0.162 -0.354 0.162 -0.374 Q 0.162 -0.42 0.131 -0.42 Q 0.09 -0.42 0.064 -0.325 Q 0.061 -0.314 0.058 -0.301 Q 0.047 -0.279 0.041 -0.278 Q 0.029 -0.278 0.029 -0.28800000000000003 Q 0.029 -0.304 0.049 -0.36 L 0.049 -0.361 Q 0.049 -0.362 0.05 -0.362 L 0.05 -0.363 L 0.05 -0.364 L 0.059000000000000004 -0.385 Q 0.081 -0.425 0.10400000000000001 -0.435 Q 0.11800000000000001 -0.442 0.134 -0.442 Q 0.19 -0.442 0.215 -0.395 Q 0.224 -0.377 0.226 -0.355 Q 0.29 -0.442 0.382 -0.442 Q 0.468 -0.442 0.491 -0.376 Q 0.497 -0.358 0.497 -0.335 Q 0.497 -0.28400000000000003 0.436 -0.115 Q 0.418 -0.07100000000000001 0.418 -0.044 Q 0.418 -0.011 0.442 -0.011 Q 0.508 -0.011 0.544 -0.135 Q 0.549 -0.151 0.554 -0.152 L 0.554 -0.153 L 0.559 -0.153 Q 0.5710000000000001 -0.153 0.5710000000000001 -0.14300000000000002 Q 0.5710000000000001 -0.126 0.55 -0.08 Q 0.507 0.011 0.44 0.011 Q 0.389 0.011 0.367 -0.032 Q 0.358 -0.05 0.358 -0.07100000000000001 Q 0.358 -0.091 0.368 -0.117 Q 0.433 -0.292 0.433 -0.35000000000000003 Q 0.433 -0.42 0.379 -0.42 Q 0.289 -0.42 0.228 -0.32 Q 0.221 -0.309 0.216 -0.298 L 0.203 -0.248 Q 0.198 -0.225 0.186 -0.181 L 0.164 -0.091 Q 0.147 -0.022 0.145 -0.017 Q 0.136 0.009000000000000001 0.108 0.011 Q 0.083 0.006 0.079 -0.016 Q 0.079 -0.014 0.088 -0.059000000000000004 Z"/></g><g transform="translate(14.234412698412699,12.464285714285714)"><path fill="rgb(0,0,0)" stroke="none" paint-order="stroke fill markers" d=" M 0.289 -0.25 L 0.289 -0.25 Q 0.289 -0.081 0.226 0.055 Q 0.17400000000000002 0.166 0.094 0.233 Q 0.073 0.25 0.067 0.25 Q 0.057 0.25 0.057 0.24 Q 0.057 0.23500000000000001 0.07 0.223 Q 0.231 0.059000000000000004 0.231 -0.25 Q 0.231 -0.555 0.081 -0.712 L 0.076 -0.717 Q 0.057 -0.735 0.057 -0.74 Q 0.057 -0.75 0.067 -0.75 Q 0.079 -0.75 0.12 -0.709 Q 0.182 -0.647 0.223 -0.562 Q 0.289 -0.426 0.289 -0.25 Z"/></g><g transform="translate(14.790079365079364,12.464285714285714)"><path fill="rgb(0,0,0)" stroke="none" paint-order="stroke fill markers" d=" M 0.40900000000000003 -0.23 L 0.40900000000000003 0.05 Q 0.40900000000000003 0.082 0.389 0.083 Q 0.369 0.083 0.369 0.05 L 0.369 -0.23 L 0.089 -0.23 Q 0.057 -0.23 0.056 -0.25 Q 0.056 -0.27 0.089 -0.27 L 0.369 -0.27 L 0.369 -0.55 Q 0.369 -0.582 0.389 -0.583 Q 0.40900000000000003 -0.583 0.40900000000000003 -0.55 L 0.40900000000000003 -0.27 L 0.6880000000000001 -0.27 Q 0.72 -0.27 0.721 -0.25 Q 0.721 -0.23 0.6880000000000001 -0.23 L 0.40900000000000003 -0.23 Z"/></g><g transform="translate(15.790301587301586,12.464285714285714)"><path fill="rgb(0,0,0)" stroke="none" paint-order="stroke fill markers" d=" M 0.29 -0.352 L 0.29 -0.352 Q 0.39 -0.332 0.434 -0.254 Q 0.457 -0.215 0.457 -0.171 Q 0.457 -0.08600000000000001 0.387 -0.028 Q 0.326 0.022 0.244 0.022 Q 0.145 0.022 0.085 -0.037 Q 0.042 -0.079 0.042 -0.135 Q 0.042 -0.182 0.084 -0.191 Q 0.091 -0.193 0.098 -0.193 Q 0.136 -0.193 0.149 -0.161 Q 0.153 -0.148 0.154 -0.137 Q 0.154 -0.097 0.11800000000000001 -0.085 Q 0.10400000000000001 -0.08 0.088 -0.082 Q 0.125 -0.02 0.216 -0.008 Q 0.229 -0.006 0.241 -0.006 Q 0.305 -0.006 0.335 -0.069 Q 0.354 -0.109 0.354 -0.171 Q 0.354 -0.304 0.274 -0.331 Q 0.256 -0.337 0.23500000000000001 -0.337 L 0.191 -0.337 Q 0.169 -0.337 0.167 -0.34800000000000003 Q 0.167 -0.358 0.182 -0.36 Q 0.197 -0.36 0.221 -0.363 Q 0.272 -0.365 0.301 -0.402 L 0.301 -0.403 L 0.302 -0.404 L 0.303 -0.405 L 0.304 -0.405 L 0.31 -0.41500000000000004 Q 0.338 -0.462 0.338 -0.529 Q 0.338 -0.622 0.266 -0.638 Q 0.254 -0.641 0.242 -0.641 Q 0.17200000000000001 -0.641 0.128 -0.601 Q 0.117 -0.591 0.109 -0.579 Q 0.171 -0.579 0.171 -0.529 Q 0.171 -0.493 0.14 -0.481 Q 0.131 -0.47800000000000004 0.12 -0.47800000000000004 Q 0.081 -0.47800000000000004 0.07100000000000001 -0.513 L 0.07100000000000001 -0.513 L 0.07100000000000001 -0.514 Q 0.069 -0.522 0.069 -0.53 Q 0.069 -0.597 0.135 -0.637 Q 0.183 -0.666 0.246 -0.666 Q 0.337 -0.666 0.393 -0.612 L 0.395 -0.61 Q 0.43 -0.5740000000000001 0.43 -0.528 Q 0.43 -0.445 0.359 -0.389 Q 0.328 -0.365 0.29 -0.352 Z"/></g><g transform="translate(16.290301587301585,12.464285714285714)"><path fill="rgb(0,0,0)" stroke="none" paint-order="stroke fill markers" d=" M 0.20600000000000002 -0.4 L 0.132 -0.105 Q 0.126 -0.08 0.126 -0.057 Q 0.126 -0.011 0.157 -0.011 Q 0.223 -0.011 0.273 -0.108 L 0.28700000000000003 -0.139 Q 0.293 -0.152 0.302 -0.153 Q 0.314 -0.153 0.314 -0.14300000000000002 Q 0.314 -0.13 0.28800000000000003 -0.08600000000000001 Q 0.23 0.011 0.155 0.011 Q 0.097 0.011 0.073 -0.037 Q 0.063 -0.057 0.063 -0.081 Q 0.063 -0.1 0.124 -0.34 L 0.139 -0.4 L 0.051000000000000004 -0.4 Q 0.026000000000000002 -0.4 0.024 -0.40800000000000003 L 0.023 -0.40800000000000003 L 0.023 -0.41200000000000003 Q 0.023 -0.429 0.039 -0.431 L 0.053 -0.431 L 0.147 -0.431 L 0.186 -0.59 Q 0.195 -0.625 0.226 -0.626 Q 0.252 -0.626 0.255 -0.599 Q 0.255 -0.593 0.214 -0.431 L 0.302 -0.431 Q 0.328 -0.431 0.33 -0.42 Q 0.33 -0.402 0.314 -0.4 L 0.313 -0.4 L 0.3 -0.4 L 0.20600000000000002 -0.4 Z"/></g><g transform="translate(16.651301587301585,12.464285714285714)"><path fill="rgb(0,0,0)" stroke="none" paint-order="stroke fill markers" d=" M 0.088 -0.059000000000000004 L 0.088 -0.059000000000000004 L 0.146 -0.29 Q 0.162 -0.354 0.162 -0.374 Q 0.162 -0.42 0.131 -0.42 Q 0.09 -0.42 0.064 -0.325 Q 0.061 -0.314 0.058 -0.301 Q 0.047 -0.279 0.041 -0.278 Q 0.029 -0.278 0.029 -0.28800000000000003 Q 0.029 -0.304 0.047 -0.355 Q 0.054 -0.373 0.06 -0.385 Q 0.084 -0.434 0.12 -0.441 Q 0.127 -0.442 0.134 -0.442 Q 0.19 -0.442 0.215 -0.394 Q 0.221 -0.383 0.224 -0.37 Q 0.225 -0.368 0.225 -0.365 Q 0.28300000000000003 -0.437 0.353 -0.442 Q 0.40900000000000003 -0.442 0.429 -0.403 Q 0.436 -0.391 0.436 -0.377 Q 0.436 -0.338 0.403 -0.323 Q 0.392 -0.318 0.381 -0.318 Q 0.35000000000000003 -0.318 0.34400000000000003 -0.34500000000000003 Q 0.343 -0.34900000000000003 0.343 -0.353 Q 0.343 -0.386 0.377 -0.402 L 0.378 -0.403 Q 0.386 -0.406 0.395 -0.40800000000000003 L 0.375 -0.417 Q 0.362 -0.419 0.353 -0.42 Q 0.311 -0.42 0.273 -0.387 Q 0.242 -0.359 0.22 -0.313 Q 0.218 -0.308 0.217 -0.305 L 0.185 -0.17500000000000002 L 0.145 -0.017 Q 0.136 0.009000000000000001 0.108 0.011 Q 0.083 0.006 0.079 -0.016 Q 0.079 -0.014 0.088 -0.059000000000000004 Z"/></g><g transform="translate(17.130301587301584,12.464285714285714)"><path fill="rgb(0,0,0)" stroke="none" paint-order="stroke fill markers" d=" M 0.28400000000000003 -0.625 Q 0.28400000000000003 -0.594 0.253 -0.578 Q 0.242 -0.5720000000000001 0.231 -0.5720000000000001 Q 0.201 -0.5720000000000001 0.194 -0.599 Q 0.193 -0.604 0.193 -0.608 Q 0.193 -0.636 0.221 -0.653 Q 0.234 -0.661 0.247 -0.661 Q 0.277 -0.661 0.28300000000000003 -0.634 L 0.28300000000000003 -0.633 Q 0.28400000000000003 -0.629 0.28400000000000003 -0.625 M 0.20800000000000002 -0.249 L 0.169 -0.14400000000000002 Q 0.14100000000000001 -0.063 0.14 -0.044 Q 0.14 -0.011 0.164 -0.011 Q 0.227 -0.011 0.262 -0.123 L 0.266 -0.135 Q 0.271 -0.151 0.276 -0.152 L 0.276 -0.153 L 0.281 -0.153 Q 0.293 -0.153 0.293 -0.14300000000000002 Q 0.293 -0.125 0.271 -0.079 Q 0.228 0.011 0.162 0.011 Q 0.109 0.011 0.088 -0.033 Q 0.08 -0.051000000000000004 0.08 -0.07100000000000001 Q 0.08 -0.091 0.10300000000000001 -0.151 Q 0.17300000000000001 -0.339 0.17200000000000001 -0.336 Q 0.183 -0.364 0.183 -0.388 Q 0.183 -0.42 0.158 -0.42 Q 0.10300000000000001 -0.42 0.068 -0.329 L 0.068 -0.328 Q 0.062 -0.313 0.057 -0.296 Q 0.046 -0.279 0.041 -0.278 Q 0.029 -0.278 0.029 -0.28800000000000003 Q 0.029 -0.306 0.051000000000000004 -0.35100000000000003 Q 0.094 -0.442 0.161 -0.442 Q 0.214 -0.442 0.23500000000000001 -0.397 Q 0.243 -0.38 0.243 -0.36 Q 0.243 -0.34 0.23 -0.307 Q 0.213 -0.261 0.20800000000000002 -0.249 Z"/></g><g transform="translate(17.475301587301583,12.464285714285714)"><path fill="rgb(0,0,0)" stroke="none" paint-order="stroke fill markers" d=" M 0.373 -0.378 Q 0.378 -0.41200000000000003 0.404 -0.42 Q 0.40900000000000003 -0.422 0.41500000000000004 -0.422 Q 0.441 -0.422 0.444 -0.395 Q 0.444 -0.389 0.437 -0.361 L 0.401 -0.221 Q 0.386 -0.158 0.379 -0.131 Q 0.366 -0.079 0.366 -0.057 Q 0.366 -0.011 0.396 -0.011 Q 0.434 -0.011 0.46 -0.091 Q 0.465 -0.108 0.47200000000000003 -0.135 Q 0.48 -0.152 0.486 -0.153 Q 0.498 -0.153 0.498 -0.14300000000000002 Q 0.498 -0.128 0.48 -0.073 Q 0.47400000000000003 -0.056 0.468 -0.044 Q 0.44 0.011 0.394 0.011 Q 0.338 0.011 0.313 -0.037 Q 0.306 -0.049 0.303 -0.064 Q 0.24 0.011 0.17300000000000001 0.011 Q 0.098 0.011 0.062 -0.057 Q 0.04 -0.097 0.04 -0.149 Q 0.04 -0.257 0.115 -0.34900000000000003 Q 0.185 -0.433 0.267 -0.441 Q 0.274 -0.442 0.281 -0.442 Q 0.342 -0.442 0.373 -0.378 M 0.308 -0.11900000000000001 L 0.308 -0.11900000000000001 L 0.358 -0.315 Q 0.361 -0.33 0.361 -0.332 Q 0.361 -0.353 0.343 -0.383 Q 0.321 -0.42 0.28200000000000003 -0.42 Q 0.23 -0.42 0.183 -0.352 Q 0.17400000000000002 -0.339 0.166 -0.324 Q 0.137 -0.266 0.117 -0.159 Q 0.111 -0.125 0.111 -0.105 Q 0.111 -0.037 0.149 -0.017 Q 0.16 -0.011 0.17500000000000002 -0.011 Q 0.231 -0.011 0.28800000000000003 -0.082 Q 0.302 -0.098 0.307 -0.115 L 0.307 -0.116 Q 0.308 -0.11800000000000001 0.308 -0.11900000000000001 Z"/></g><g transform="translate(18.004301587301583,12.464285714285714)"><path fill="rgb(0,0,0)" stroke="none" paint-order="stroke fill markers" d=" M 0.088 -0.059000000000000004 L 0.088 -0.059000000000000004 L 0.146 -0.29 Q 0.162 -0.354 0.162 -0.374 Q 0.162 -0.42 0.131 -0.42 Q 0.09 -0.42 0.064 -0.325 Q 0.061 -0.314 0.058 -0.301 Q 0.047 -0.279 0.041 -0.278 Q 0.029 -0.278 0.029 -0.28800000000000003 Q 0.029 -0.304 0.049 -0.36 L 0.049 -0.361 Q 0.049 -0.362 0.05 -0.362 L 0.05 -0.363 L 0.05 -0.364 L 0.059000000000000004 -0.385 Q 0.081 -0.425 0.10400000000000001 -0.435 Q 0.11800000000000001 -0.442 0.134 -0.442 Q 0.19 -0.442 0.215 -0.395 Q 0.224 -0.377 0.226 -0.355 Q 0.29 -0.442 0.382 -0.442 Q 0.468 -0.442 0.491 -0.376 Q 0.497 -0.358 0.497 -0.335 Q 0.497 -0.28400000000000003 0.436 -0.115 Q 0.418 -0.07100000000000001 0.418 -0.044 Q 0.418 -0.011 0.442 -0.011 Q 0.508 -0.011 0.544 -0.135 Q 0.549 -0.151 0.554 -0.152 L 0.554 -0.153 L 0.559 -0.153 Q 0.5710000000000001 -0.153 0.5710000000000001 -0.14300000000000002 Q 0.5710000000000001 -0.126 0.55 -0.08 Q 0.507 0.011 0.44 0.011 Q 0.389 0.011 0.367 -0.032 Q 0.358 -0.05 0.358 -0.07100000000000001 Q 0.358 -0.091 0.368 -0.117 Q 0.433 -0.292 0.433 -0.35000000000000003 Q 0.433 -0.42 0.379 -0.42 Q 0.289 -0.42 0.228 -0.32 Q 0.221 -0.309 0.216 -0.298 L 0.203 -0.248 Q 0.198 -0.225 0.186 -0.181 L 0.164 -0.091 Q 0.147 -0.022 0.145 -0.017 Q 0.136 0.009000000000000001 0.108 0.011 Q 0.083 0.006 0.079 -0.016 Q 0.079 -0.014 0.088 -0.059000000000000004 Z"/></g><g transform="translate(18.604301587301585,12.464285714285714)"><path fill="rgb(0,0,0)" stroke="none" paint-order="stroke fill markers" d=" M 0.47100000000000003 -0.377 L 0.47100000000000003 -0.377 L 0.36 0.067 Q 0.34500000000000003 0.127 0.28200000000000003 0.168 Q 0.224 0.20500000000000002 0.148 0.20500000000000002 Q 0.025 0.20500000000000002 0.016 0.155 Q 0.015 0.15 0.015 0.14400000000000002 Q 0.015 0.10300000000000001 0.052000000000000005 0.089 Q 0.061 0.08600000000000001 0.069 0.08600000000000001 Q 0.1 0.08600000000000001 0.106 0.113 Q 0.107 0.117 0.107 0.121 Q 0.107 0.153 0.077 0.169 Q 0.07200000000000001 0.171 0.066 0.17300000000000001 Q 0.097 0.183 0.146 0.183 Q 0.244 0.183 0.29 0.075 L 0.323 -0.057 L 0.322 -0.058 Q 0.277 -0.008 0.221 -0.001 Q 0.213 0 0.20600000000000002 0 Q 0.136 0 0.098 -0.061 Q 0.073 -0.10200000000000001 0.073 -0.158 Q 0.073 -0.265 0.149 -0.354 Q 0.219 -0.436 0.3 -0.442 L 0.311 -0.442 Q 0.365 -0.442 0.398 -0.391 L 0.404 -0.379 Q 0.41300000000000003 -0.417 0.445 -0.422 Q 0.47100000000000003 -0.422 0.47400000000000003 -0.395 L 0.47100000000000003 -0.377 M 0.341 -0.128 L 0.341 -0.128 L 0.389 -0.319 Q 0.392 -0.331 0.392 -0.334 Q 0.392 -0.354 0.375 -0.382 L 0.375 -0.382 Q 0.363 -0.402 0.34500000000000003 -0.41200000000000003 Q 0.33 -0.42 0.312 -0.42 Q 0.26 -0.42 0.213 -0.353 Q 0.20600000000000002 -0.342 0.2 -0.331 Q 0.168 -0.271 0.149 -0.164 Q 0.14400000000000002 -0.133 0.14400000000000002 -0.114 Q 0.14400000000000002 -0.048 0.182 -0.028 Q 0.193 -0.022 0.209 -0.022 Q 0.248 -0.022 0.29 -0.058 Q 0.334 -0.096 0.341 -0.128 Z"/></g><g transform="translate(19.117301587301586,12.464285714285714)"><path fill="rgb(0,0,0)" stroke="none" paint-order="stroke fill markers" d=" M 0.35000000000000003 -0.056 L 0.35000000000000003 -0.056 Q 0.298 0.011 0.231 0.011 Q 0.15 0.011 0.121 -0.048 Q 0.108 -0.074 0.108 -0.109 Q 0.108 -0.163 0.161 -0.305 Q 0.163 -0.312 0.166 -0.319 Q 0.183 -0.362 0.183 -0.387 Q 0.183 -0.42 0.158 -0.42 Q 0.10200000000000001 -0.42 0.067 -0.325 Q 0.066 -0.325 0.066 -0.324 L 0.066 -0.323 Q 0.061 -0.31 0.057 -0.296 Q 0.046 -0.279 0.041 -0.278 Q 0.029 -0.278 0.029 -0.28800000000000003 Q 0.029 -0.306 0.05 -0.35100000000000003 Q 0.094 -0.442 0.161 -0.442 Q 0.214 -0.442 0.23500000000000001 -0.397 Q 0.243 -0.38 0.243 -0.36 Q 0.243 -0.34 0.226 -0.297 Q 0.17200000000000001 -0.154 0.17200000000000001 -0.093 Q 0.17200000000000001 -0.011 0.234 -0.011 Q 0.297 -0.011 0.34 -0.08 Q 0.34600000000000003 -0.089 0.34800000000000003 -0.095 Q 0.37 -0.194 0.423 -0.396 Q 0.431 -0.431 0.462 -0.431 Q 0.487 -0.426 0.491 -0.404 Q 0.491 -0.406 0.47600000000000003 -0.337 Q 0.462 -0.28600000000000003 0.459 -0.269 L 0.431 -0.161 Q 0.41100000000000003 -0.074 0.41100000000000003 -0.057 Q 0.41100000000000003 -0.011 0.442 -0.011 Q 0.484 -0.011 0.511 -0.111 Q 0.514 -0.121 0.517 -0.135 Q 0.525 -0.152 0.531 -0.153 Q 0.543 -0.153 0.543 -0.14300000000000002 Q 0.543 -0.128 0.525 -0.073 Q 0.519 -0.056 0.513 -0.044 Q 0.486 0.011 0.439 0.011 Q 0.382 0.011 0.358 -0.037 Q 0.353 -0.046 0.35000000000000003 -0.056 Z"/></g><g transform="translate(19.689301587301586,12.464285714285714)"><path fill="rgb(0,0,0)" stroke="none" paint-order="stroke fill markers" d=" M 0.258 -0.683 L 0.114 -0.105 Q 0.108 -0.082 0.108 -0.057 Q 0.108 -0.011 0.138 -0.011 Q 0.177 -0.011 0.203 -0.097 Q 0.20800000000000002 -0.112 0.214 -0.135 Q 0.222 -0.152 0.228 -0.153 Q 0.24 -0.153 0.24 -0.14300000000000002 Q 0.24 -0.128 0.222 -0.074 Q 0.216 -0.057 0.21 -0.045 Q 0.184 0.011 0.135 0.011 Q 0.083 0.011 0.057 -0.031 Q 0.044 -0.053 0.044 -0.081 Q 0.044 -0.097 0.049 -0.115 L 0.17500000000000002 -0.615 L 0.178 -0.635 Q 0.178 -0.646 0.164 -0.649 Q 0.152 -0.652 0.129 -0.652 Q 0.106 -0.652 0.10400000000000001 -0.663 Q 0.10400000000000001 -0.681 0.123 -0.684 L 0.245 -0.6940000000000001 Q 0.258 -0.6940000000000001 0.258 -0.683 Z"/></g><g transform="translate(20.007301587301587,12.464285714285714)"><path fill="rgb(0,0,0)" stroke="none" paint-order="stroke fill markers" d=" M 0.373 -0.378 Q 0.378 -0.41200000000000003 0.404 -0.42 Q 0.40900000000000003 -0.422 0.41500000000000004 -0.422 Q 0.441 -0.422 0.444 -0.395 Q 0.444 -0.389 0.437 -0.361 L 0.401 -0.221 Q 0.386 -0.158 0.379 -0.131 Q 0.366 -0.079 0.366 -0.057 Q 0.366 -0.011 0.396 -0.011 Q 0.434 -0.011 0.46 -0.091 Q 0.465 -0.108 0.47200000000000003 -0.135 Q 0.48 -0.152 0.486 -0.153 Q 0.498 -0.153 0.498 -0.14300000000000002 Q 0.498 -0.128 0.48 -0.073 Q 0.47400000000000003 -0.056 0.468 -0.044 Q 0.44 0.011 0.394 0.011 Q 0.338 0.011 0.313 -0.037 Q 0.306 -0.049 0.303 -0.064 Q 0.24 0.011 0.17300000000000001 0.011 Q 0.098 0.011 0.062 -0.057 Q 0.04 -0.097 0.04 -0.149 Q 0.04 -0.257 0.115 -0.34900000000000003 Q 0.185 -0.433 0.267 -0.441 Q 0.274 -0.442 0.281 -0.442 Q 0.342 -0.442 0.373 -0.378 M 0.308 -0.11900000000000001 L 0.308 -0.11900000000000001 L 0.358 -0.315 Q 0.361 -0.33 0.361 -0.332 Q 0.361 -0.353 0.343 -0.383 Q 0.321 -0.42 0.28200000000000003 -0.42 Q 0.23 -0.42 0.183 -0.352 Q 0.17400000000000002 -0.339 0.166 -0.324 Q 0.137 -0.266 0.117 -0.159 Q 0.111 -0.125 0.111 -0.105 Q 0.111 -0.037 0.149 -0.017 Q 0.16 -0.011 0.17500000000000002 -0.011 Q 0.231 -0.011 0.28800000000000003 -0.082 Q 0.302 -0.098 0.307 -0.115 L 0.307 -0.116 Q 0.308 -0.11800000000000001 0.308 -0.11900000000000001 Z"/></g><g transform="translate(20.536301587301587,12.464285714285714)"><path fill="rgb(0,0,0)" stroke="none" paint-order="stroke fill markers" d=" M 0.088 -0.059000000000000004 L 0.088 -0.059000000000000004 L 0.146 -0.29 Q 0.162 -0.354 0.162 -0.374 Q 0.162 -0.42 0.131 -0.42 Q 0.09 -0.42 0.064 -0.325 Q 0.061 -0.314 0.058 -0.301 Q 0.047 -0.279 0.041 -0.278 Q 0.029 -0.278 0.029 -0.28800000000000003 Q 0.029 -0.304 0.047 -0.355 Q 0.054 -0.373 0.06 -0.385 Q 0.084 -0.434 0.12 -0.441 Q 0.127 -0.442 0.134 -0.442 Q 0.19 -0.442 0.215 -0.394 Q 0.221 -0.383 0.224 -0.37 Q 0.225 -0.368 0.225 -0.365 Q 0.28300000000000003 -0.437 0.353 -0.442 Q 0.40900000000000003 -0.442 0.429 -0.403 Q 0.436 -0.391 0.436 -0.377 Q 0.436 -0.338 0.403 -0.323 Q 0.392 -0.318 0.381 -0.318 Q 0.35000000000000003 -0.318 0.34400000000000003 -0.34500000000000003 Q 0.343 -0.34900000000000003 0.343 -0.353 Q 0.343 -0.386 0.377 -0.402 L 0.378 -0.403 Q 0.386 -0.406 0.395 -0.40800000000000003 L 0.375 -0.417 Q 0.362 -0.419 0.353 -0.42 Q 0.311 -0.42 0.273 -0.387 Q 0.242 -0.359 0.22 -0.313 Q 0.218 -0.308 0.217 -0.305 L 0.185 -0.17500000000000002 L 0.145 -0.017 Q 0.136 0.009000000000000001 0.108 0.011 Q 0.083 0.006 0.079 -0.016 Q 0.079 -0.014 0.088 -0.059000000000000004 Z"/></g><g transform="translate(21.015301587301586,12.464285714285714)"><path fill="rgb(0,0,0)" stroke="none" paint-order="stroke fill markers" d=" M 0.331 0.24 L 0.331 0.24 Q 0.331 0.25 0.321 0.25 Q 0.309 0.25 0.268 0.209 Q 0.20600000000000002 0.147 0.165 0.062 Q 0.099 -0.074 0.099 -0.25 Q 0.099 -0.419 0.162 -0.555 Q 0.214 -0.666 0.294 -0.733 Q 0.315 -0.75 0.321 -0.75 Q 0.331 -0.75 0.331 -0.74 Q 0.331 -0.735 0.318 -0.723 Q 0.157 -0.559 0.157 -0.25 Q 0.157 0.058 0.314 0.218 Q 0.331 0.23500000000000001 0.331 0.24 Z"/></g><g transform="translate(21.404301587301585,12.464285714285714)"><path fill="rgb(0,0,0)" stroke="none" paint-order="stroke fill markers" d=" M 0.088 -0.059000000000000004 L 0.088 -0.059000000000000004 L 0.146 -0.29 Q 0.162 -0.354 0.162 -0.374 Q 0.162 -0.42 0.131 -0.42 Q 0.09 -0.42 0.064 -0.325 Q 0.061 -0.314 0.058 -0.301 Q 0.047 -0.279 0.041 -0.278 Q 0.029 -0.278 0.029 -0.28800000000000003 Q 0.029 -0.304 0.049 -0.36 L 0.049 -0.361 Q 0.049 -0.362 0.05 -0.362 L 0.05 -0.363 L 0.05 -0.364 L 0.059000000000000004 -0.385 Q 0.081 -0.425 0.10400000000000001 -0.435 Q 0.11800000000000001 -0.442 0.134 -0.442 Q 0.19 -0.442 0.215 -0.395 Q 0.224 -0.377 0.226 -0.355 Q 0.29 -0.442 0.382 -0.442 Q 0.468 -0.442 0.491 -0.376 Q 0.497 -0.358 0.497 -0.335 Q 0.497 -0.28400000000000003 0.436 -0.115 Q 0.418 -0.07100000000000001 0.418 -0.044 Q 0.418 -0.011 0.442 -0.011 Q 0.508 -0.011 0.544 -0.135 Q 0.549 -0.151 0.554 -0.152 L 0.554 -0.153 L 0.559 -0.153 Q 0.5710000000000001 -0.153 0.5710000000000001 -0.14300000000000002 Q 0.5710000000000001 -0.126 0.55 -0.08 Q 0.507 0.011 0.44 0.011 Q 0.389 0.011 0.367 -0.032 Q 0.358 -0.05 0.358 -0.07100000000000001 Q 0.358 -0.091 0.368 -0.117 Q 0.433 -0.292 0.433 -0.35000000000000003 Q 0.433 -0.42 0.379 -0.42 Q 0.289 -0.42 0.228 -0.32 Q 0.221 -0.309 0.216 -0.298 L 0.203 -0.248 Q 0.198 -0.225 0.186 -0.181 L 0.164 -0.091 Q 0.147 -0.022 0.145 -0.017 Q 0.136 0.009000000000000001 0.108 0.011 Q 0.083 0.006 0.079 -0.016 Q 0.079 -0.014 0.088 -0.059000000000000004 Z"/></g><g transform="translate(22.004301587301587,12.464285714285714)"><path fill="rgb(0,0,0)" stroke="none" paint-order="stroke fill markers" d=" M 0.289 -0.25 L 0.289 -0.25 Q 0.289 -0.081 0.226 0.055 Q 0.17400000000000002 0.166 0.094 0.233 Q 0.073 0.25 0.067 0.25 Q 0.057 0.25 0.057 0.24 Q 0.057 0.23500000000000001 0.07 0.223 Q 0.231 0.059000000000000004 0.231 -0.25 Q 0.231 -0.555 0.081 -0.712 L 0.076 -0.717 Q 0.057 -0.735 0.057 -0.74 Q 0.057 -0.75 0.067 -0.75 Q 0.079 -0.75 0.12 -0.709 Q 0.182 -0.647 0.223 -0.562 Q 0.289 -0.426 0.289 -0.25 Z"/></g><g transform="translate(22.559968253968254,12.464285714285714)"><path fill="rgb(0,0,0)" stroke="none" paint-order="stroke fill markers" d=" M 0.661 -0.23 L 0.116 -0.23 Q 0.084 -0.23 0.083 -0.25 Q 0.083 -0.27 0.116 -0.27 L 0.661 -0.27 Q 0.6930000000000001 -0.27 0.6940000000000001 -0.25 Q 0.6940000000000001 -0.23 0.661 -0.23 Z"/></g><g transform="translate(23.560190476190474,12.464285714285714)"><path fill="rgb(0,0,0)" stroke="none" paint-order="stroke fill markers" d=" M 0.47600000000000003 -0.609 L 0.341 -0.419 Q 0.298 -0.359 0.279 -0.248 Q 0.268 -0.17400000000000002 0.268 -0.084 L 0.268 -0.033 Q 0.268 0.022 0.222 0.022 Q 0.176 0.022 0.176 -0.033 Q 0.176 -0.2 0.273 -0.368 L 0.299 -0.40900000000000003 L 0.41100000000000003 -0.5670000000000001 L 0.20400000000000001 -0.5670000000000001 Q 0.113 -0.5670000000000001 0.106 -0.561 Q 0.096 -0.552 0.081 -0.47000000000000003 L 0.056 -0.47000000000000003 L 0.089 -0.676 L 0.114 -0.676 Q 0.11800000000000001 -0.659 0.132 -0.653 L 0.133 -0.653 L 0.133 -0.653 Q 0.159 -0.644 0.242 -0.644 L 0.485 -0.644 Q 0.485 -0.621 0.47600000000000003 -0.609 Z"/></g><g transform="translate(24.060190476190474,12.464285714285714)"><path fill="rgb(0,0,0)" stroke="none" paint-order="stroke fill markers" d=" M 0.045 0.122 L 0.045 0.122 L 0.157 -0.323 Q 0.164 -0.353 0.164 -0.374 Q 0.164 -0.42 0.133 -0.42 Q 0.092 -0.42 0.066 -0.325 Q 0.063 -0.314 0.06 -0.301 Q 0.049 -0.279 0.043000000000000003 -0.278 Q 0.031 -0.278 0.031 -0.28800000000000003 Q 0.031 -0.304 0.049 -0.355 Q 0.056 -0.373 0.062 -0.385 Q 0.08600000000000001 -0.434 0.122 -0.441 Q 0.129 -0.442 0.136 -0.442 Q 0.19 -0.442 0.215 -0.398 L 0.215 -0.397 Q 0.223 -0.384 0.226 -0.367 Q 0.289 -0.442 0.357 -0.442 Q 0.428 -0.442 0.466 -0.378 Q 0.488 -0.333 0.49 -0.28200000000000003 Q 0.49 -0.17400000000000002 0.41400000000000003 -0.082 Q 0.34500000000000003 0.002 0.263 0.01 Q 0.256 0.011 0.249 0.011 Q 0.186 0.011 0.157 -0.053 Q 0.12 0.079 0.109 0.14100000000000001 Q 0.108 0.146 0.108 0.147 Q 0.108 0.158 0.121 0.161 L 0.122 0.161 L 0.122 0.161 Q 0.134 0.163 0.158 0.163 Q 0.18 0.163 0.182 0.17400000000000002 Q 0.182 0.194 0.164 0.194 L 0.066 0.191 L 0.065 0.191 L -0.017 0.194 L -0.019 0.194 Q -0.032 0.194 -0.032 0.182 Q -0.026000000000000002 0.164 -0.009000000000000001 0.163 Q 0.028 0.163 0.036000000000000004 0.15 L 0.037 0.149 Q 0.039 0.145 0.041 0.138 Q 0.042 0.133 0.045 0.122 M 0.221 -0.312 L 0.221 -0.312 L 0.17200000000000001 -0.116 Q 0.169 -0.10400000000000001 0.169 -0.1 Q 0.169 -0.077 0.187 -0.048 Q 0.198 -0.029 0.215 -0.019 Q 0.23 -0.011 0.248 -0.011 Q 0.299 -0.011 0.34400000000000003 -0.075 Q 0.357 -0.093 0.367 -0.114 Q 0.394 -0.171 0.41200000000000003 -0.268 Q 0.418 -0.303 0.418 -0.326 Q 0.418 -0.405 0.37 -0.418 Q 0.362 -0.42 0.354 -0.42 Q 0.316 -0.42 0.273 -0.382 Q 0.23 -0.34600000000000003 0.221 -0.312 Z"/></g><g transform="translate(24.563190476190474,12.464285714285714)"><path fill="rgb(0,0,0)" stroke="none" paint-order="stroke fill markers" d=" M 0.088 -0.059000000000000004 L 0.088 -0.059000000000000004 L 0.146 -0.29 Q 0.162 -0.354 0.162 -0.374 Q 0.162 -0.42 0.131 -0.42 Q 0.09 -0.42 0.064 -0.325 Q 0.061 -0.314 0.058 -0.301 Q 0.047 -0.279 0.041 -0.278 Q 0.029 -0.278 0.029 -0.28800000000000003 Q 0.029 -0.304 0.047 -0.355 Q 0.054 -0.373 0.06 -0.385 Q 0.084 -0.434 0.12 -0.441 Q 0.127 -0.442 0.134 -0.442 Q 0.19 -0.442 0.215 -0.394 Q 0.221 -0.383 0.224 -0.37 Q 0.225 -0.368 0.225 -0.365 Q 0.28300000000000003 -0.437 0.353 -0.442 Q 0.40900000000000003 -0.442 0.429 -0.403 Q 0.436 -0.391 0.436 -0.377 Q 0.436 -0.338 0.403 -0.323 Q 0.392 -0.318 0.381 -0.318 Q 0.35000000000000003 -0.318 0.34400000000000003 -0.34500000000000003 Q 0.343 -0.34900000000000003 0.343 -0.353 Q 0.343 -0.386 0.377 -0.402 L 0.378 -0.403 Q 0.386 -0.406 0.395 -0.40800000000000003 L 0.375 -0.417 Q 0.362 -0.419 0.353 -0.42 Q 0.311 -0.42 0.273 -0.387 Q 0.242 -0.359 0.22 -0.313 Q 0.218 -0.308 0.217 -0.305 L 0.185 -0.17500000000000002 L 0.145 -0.017 Q 0.136 0.009000000000000001 0.108 0.011 Q 0.083 0.006 0.079 -0.016 Q 0.079 -0.014 0.088 -0.059000000000000004 Z"/></g><g transform="translate(25.042190476190473,12.464285714285714)"><path fill="rgb(0,0,0)" stroke="none" paint-order="stroke fill markers" d=" M 0.28400000000000003 -0.625 Q 0.28400000000000003 -0.594 0.253 -0.578 Q 0.242 -0.5720000000000001 0.231 -0.5720000000000001 Q 0.201 -0.5720000000000001 0.194 -0.599 Q 0.193 -0.604 0.193 -0.608 Q 0.193 -0.636 0.221 -0.653 Q 0.234 -0.661 0.247 -0.661 Q 0.277 -0.661 0.28300000000000003 -0.634 L 0.28300000000000003 -0.633 Q 0.28400000000000003 -0.629 0.28400000000000003 -0.625 M 0.20800000000000002 -0.249 L 0.169 -0.14400000000000002 Q 0.14100000000000001 -0.063 0.14 -0.044 Q 0.14 -0.011 0.164 -0.011 Q 0.227 -0.011 0.262 -0.123 L 0.266 -0.135 Q 0.271 -0.151 0.276 -0.152 L 0.276 -0.153 L 0.281 -0.153 Q 0.293 -0.153 0.293 -0.14300000000000002 Q 0.293 -0.125 0.271 -0.079 Q 0.228 0.011 0.162 0.011 Q 0.109 0.011 0.088 -0.033 Q 0.08 -0.051000000000000004 0.08 -0.07100000000000001 Q 0.08 -0.091 0.10300000000000001 -0.151 Q 0.17300000000000001 -0.339 0.17200000000000001 -0.336 Q 0.183 -0.364 0.183 -0.388 Q 0.183 -0.42 0.158 -0.42 Q 0.10300000000000001 -0.42 0.068 -0.329 L 0.068 -0.328 Q 0.062 -0.313 0.057 -0.296 Q 0.046 -0.279 0.041 -0.278 Q 0.029 -0.278 0.029 -0.28800000000000003 Q 0.029 -0.306 0.051000000000000004 -0.35100000000000003 Q 0.094 -0.442 0.161 -0.442 Q 0.214 -0.442 0.23500000000000001 -0.397 Q 0.243 -0.38 0.243 -0.36 Q 0.243 -0.34 0.23 -0.307 Q 0.213 -0.261 0.20800000000000002 -0.249 Z"/></g><g transform="translate(25.387190476190472,12.464285714285714)"><path fill="rgb(0,0,0)" stroke="none" paint-order="stroke fill markers" d=" M 0.088 -0.059000000000000004 L 0.088 -0.059000000000000004 L 0.146 -0.29 Q 0.162 -0.354 0.162 -0.374 Q 0.162 -0.42 0.131 -0.42 Q 0.09 -0.42 0.064 -0.325 Q 0.061 -0.314 0.058 -0.301 Q 0.047 -0.279 0.041 -0.278 Q 0.029 -0.278 0.029 -0.28800000000000003 Q 0.029 -0.304 0.048 -0.356 Q 0.054 -0.373 0.06 -0.385 Q 0.084 -0.434 0.12 -0.441 Q 0.127 -0.442 0.134 -0.442 Q 0.188 -0.442 0.214 -0.397 Q 0.224 -0.378 0.226 -0.355 Q 0.29 -0.442 0.382 -0.442 Q 0.433 -0.442 0.464 -0.41600000000000004 Q 0.492 -0.392 0.496 -0.34500000000000003 Q 0.5640000000000001 -0.442 0.659 -0.442 Q 0.748 -0.442 0.769 -0.373 L 0.769 -0.372 Q 0.774 -0.355 0.774 -0.335 Q 0.774 -0.28200000000000003 0.713 -0.115 Q 0.6950000000000001 -0.07100000000000001 0.6950000000000001 -0.044 Q 0.6950000000000001 -0.011 0.719 -0.011 Q 0.781 -0.011 0.8170000000000001 -0.121 L 0.8210000000000001 -0.135 Q 0.8260000000000001 -0.151 0.8310000000000001 -0.152 L 0.8310000000000001 -0.153 L 0.836 -0.153 Q 0.848 -0.153 0.848 -0.14300000000000002 Q 0.848 -0.126 0.8270000000000001 -0.08 Q 0.784 0.011 0.717 0.011 Q 0.666 0.011 0.644 -0.032 Q 0.635 -0.05 0.635 -0.07100000000000001 Q 0.635 -0.091 0.648 -0.126 Q 0.71 -0.29 0.71 -0.35000000000000003 Q 0.71 -0.42 0.656 -0.42 Q 0.5680000000000001 -0.42 0.51 -0.325 Q 0.494 -0.3 0.491 -0.28700000000000003 Q 0.488 -0.274 0.431 -0.046 Q 0.42 -0.003 0.406 0.006 L 0.405 0.007 L 0.404 0.007 Q 0.397 0.011 0.386 0.011 Q 0.361 0.006 0.357 -0.016 L 0.37 -0.075 L 0.39 -0.151 L 0.418 -0.267 Q 0.433 -0.323 0.433 -0.35000000000000003 Q 0.433 -0.42 0.379 -0.42 Q 0.289 -0.42 0.228 -0.32 Q 0.221 -0.309 0.216 -0.298 L 0.203 -0.248 Q 0.198 -0.225 0.186 -0.181 L 0.164 -0.091 Q 0.147 -0.022 0.145 -0.017 Q 0.136 0.009000000000000001 0.108 0.011 Q 0.083 0.006 0.079 -0.016 Q 0.079 -0.014 0.088 -0.059000000000000004 Z"/></g><g transform="translate(26.265190476190472,12.464285714285714)"><path fill="rgb(0,0,0)" stroke="none" paint-order="stroke fill markers" d=" M 0.187 -0.231 L 0.134 -0.231 Q 0.11800000000000001 -0.166 0.11800000000000001 -0.127 Q 0.11800000000000001 -0.048 0.164 -0.021 Q 0.181 -0.011 0.20500000000000002 -0.011 Q 0.295 -0.011 0.367 -0.07100000000000001 Q 0.388 -0.088 0.405 -0.11 Q 0.41200000000000003 -0.12 0.418 -0.12 Q 0.427 -0.12 0.43 -0.107 Q 0.43 -0.096 0.396 -0.064 Q 0.313 0.011 0.203 0.011 Q 0.113 0.011 0.07100000000000001 -0.066 Q 0.046 -0.111 0.046 -0.17 Q 0.046 -0.301 0.148 -0.382 Q 0.223 -0.442 0.308 -0.442 Q 0.38 -0.442 0.406 -0.392 Q 0.41500000000000004 -0.376 0.41500000000000004 -0.357 Q 0.41500000000000004 -0.305 0.37 -0.271 L 0.369 -0.27 Q 0.356 -0.261 0.34 -0.254 Q 0.28500000000000003 -0.231 0.187 -0.231 M 0.14 -0.253 L 0.181 -0.253 Q 0.382 -0.253 0.382 -0.357 Q 0.382 -0.397 0.343 -0.41400000000000003 L 0.343 -0.41400000000000003 Q 0.329 -0.419 0.308 -0.42 Q 0.252 -0.42 0.20500000000000002 -0.374 Q 0.16 -0.33 0.14 -0.253 Z"/></g><g transform="translate(26.731190476190474,12.464285714285714)"><path fill="rgb(0,0,0)" stroke="none" paint-order="stroke fill markers" d=" M 0.331 0.24 L 0.331 0.24 Q 0.331 0.25 0.321 0.25 Q 0.309 0.25 0.268 0.209 Q 0.20600000000000002 0.147 0.165 0.062 Q 0.099 -0.074 0.099 -0.25 Q 0.099 -0.419 0.162 -0.555 Q 0.214 -0.666 0.294 -0.733 Q 0.315 -0.75 0.321 -0.75 Q 0.331 -0.75 0.331 -0.74 Q 0.331 -0.735 0.318 -0.723 Q 0.157 -0.559 0.157 -0.25 Q 0.157 0.058 0.314 0.218 Q 0.331 0.23500000000000001 0.331 0.24 Z"/></g><g transform="translate(27.120190476190473,12.464285714285714)"><path fill="rgb(0,0,0)" stroke="none" paint-order="stroke fill markers" d=" M 0.088 -0.059000000000000004 L 0.088 -0.059000000000000004 L 0.146 -0.29 Q 0.162 -0.354 0.162 -0.374 Q 0.162 -0.42 0.131 -0.42 Q 0.09 -0.42 0.064 -0.325 Q 0.061 -0.314 0.058 -0.301 Q 0.047 -0.279 0.041 -0.278 Q 0.029 -0.278 0.029 -0.28800000000000003 Q 0.029 -0.304 0.049 -0.36 L 0.049 -0.361 Q 0.049 -0.362 0.05 -0.362 L 0.05 -0.363 L 0.05 -0.364 L 0.059000000000000004 -0.385 Q 0.081 -0.425 0.10400000000000001 -0.435 Q 0.11800000000000001 -0.442 0.134 -0.442 Q 0.19 -0.442 0.215 -0.395 Q 0.224 -0.377 0.226 -0.355 Q 0.29 -0.442 0.382 -0.442 Q 0.468 -0.442 0.491 -0.376 Q 0.497 -0.358 0.497 -0.335 Q 0.497 -0.28400000000000003 0.436 -0.115 Q 0.418 -0.07100000000000001 0.418 -0.044 Q 0.418 -0.011 0.442 -0.011 Q 0.508 -0.011 0.544 -0.135 Q 0.549 -0.151 0.554 -0.152 L 0.554 -0.153 L 0.559 -0.153 Q 0.5710000000000001 -0.153 0.5710000000000001 -0.14300000000000002 Q 0.5710000000000001 -0.126 0.55 -0.08 Q 0.507 0.011 0.44 0.011 Q 0.389 0.011 0.367 -0.032 Q 0.358 -0.05 0.358 -0.07100000000000001 Q 0.358 -0.091 0.368 -0.117 Q 0.433 -0.292 0.433 -0.35000000000000003 Q 0.433 -0.42 0.379 -0.42 Q 0.289 -0.42 0.228 -0.32 Q 0.221 -0.309 0.216 -0.298 L 0.203 -0.248 Q 0.198 -0.225 0.186 -0.181 L 0.164 -0.091 Q 0.147 -0.022 0.145 -0.017 Q 0.136 0.009000000000000001 0.108 0.011 Q 0.083 0.006 0.079 -0.016 Q 0.079 -0.014 0.088 -0.059000000000000004 Z"/></g><g transform="translate(27.720190476190474,12.464285714285714)"><path fill="rgb(0,0,0)" stroke="none" paint-order="stroke fill markers" d=" M 0.289 -0.25 L 0.289 -0.25 Q 0.289 -0.081 0.226 0.055 Q 0.17400000000000002 0.166 0.094 0.233 Q 0.073 0.25 0.067 0.25 Q 0.057 0.25 0.057 0.24 Q 0.057 0.23500000000000001 0.07 0.223 Q 0.231 0.059000000000000004 0.231 -0.25 Q 0.231 -0.555 0.081 -0.712 L 0.076 -0.717 Q 0.057 -0.735 0.057 -0.74 Q 0.057 -0.75 0.067 -0.75 Q 0.079 -0.75 0.12 -0.709 Q 0.182 -0.647 0.223 -0.562 Q 0.289 -0.426 0.289 -0.25 Z"/></g></g></g></g></svg>